{
  "accessors": [
    {
      "bufferView": 2,
      "componentType": 5126,
      "count": 15392,
      "max": [
        4.078568458557129,
        4.041317939758301,
        2.6830382347106934
      ],
      "min": [
        -3.979921340942383,
        -4.041317939758301,
        -0.15765976905822754
      ],
      "type": "VEC3"
    },
    {
      "bufferView": 2,
      "byteOffset": 184704,
      "componentType": 5126,
      "count": 15392,
      "max": [
        0.9999755620956421,
        0.999859094619751,
        1.0
      ],
      "min": [
        -0.9998574256896973,
        -0.9999259114265442,
        -0.9999673366546631
      ],
      "type": "VEC3"
    },
    {
      "bufferView": 1,
      "componentType": 5126,
      "count": 15392,
      "max": [
        0.9903212189674377,
        0.9588966369628906
      ],
      "min": [
        0.6589221954345703,
        0.03277471661567688
      ],
      "type": "VEC2"
    },
    {
      "bufferView": 1,
      "byteOffset": 123136,
      "componentType": 5126,
      "count": 15392,
      "max": [
        0.9903212189674377,
        0.9588966369628906
      ],
      "min": [
        0.6589221954345703,
        0.03277471661567688
      ],
      "type": "VEC2"
    },
    {
      "bufferView": 0,
      "componentType": 5125,
      "count": 72258,
      "type": "SCALAR"
    },
    {
      "bufferView": 2,
      "byteOffset": 369408,
      "componentType": 5126,
      "count": 40834,
      "max": [
        0.904982328414917,
        0.9049822092056274,
        2.3645589351654053
      ],
      "min": [
        -0.904982328414917,
        -0.9049821496009827,
        -0.0005309989210218191
      ],
      "type": "VEC3"
    },
    {
      "bufferView": 2,
      "byteOffset": 859416,
      "componentType": 5126,
      "count": 40834,
      "max": [
        1.0,
        1.0,
        1.0
      ],
      "min": [
        -1.0,
        -1.0,
        -1.0
      ],
      "type": "VEC3"
    },
    {
      "bufferView": 1,
      "byteOffset": 246272,
      "componentType": 5126,
      "count": 40834,
      "max": [
        0.994819700717926,
        0.995042622089386
      ],
      "min": [
        0.06114506721496582,
        0.031883079558610916
      ],
      "type": "VEC2"
    },
    {
      "bufferView": 1,
      "byteOffset": 572944,
      "componentType": 5126,
      "count": 40834,
      "max": [
        0.994819700717926,
        0.995042622089386
      ],
      "min": [
        0.06114506721496582,
        0.031883079558610916
      ],
      "type": "VEC2"
    },
    {
      "bufferView": 0,
      "byteOffset": 289032,
      "componentType": 5125,
      "count": 203037,
      "type": "SCALAR"
    },
    {
      "bufferView": 2,
      "byteOffset": 1349424,
      "componentType": 5126,
      "count": 1600,
      "max": [
        6.412266254425049,
        0.8783772587776184,
        1.5195587873458862
      ],
      "min": [
        -0.3261404037475586,
        -0.22231855988502502,
        -1.5138572454452515
      ],
      "type": "VEC3"
    },
    {
      "bufferView": 2,
      "byteOffset": 1368624,
      "componentType": 5126,
      "count": 1600,
      "max": [
        0.9683979153633118,
        0.9678831100463867,
        0.9305847883224487
      ],
      "min": [
        -0.968397855758667,
        -0.9678825736045837,
        -0.9305830001831055
      ],
      "type": "VEC3"
    },
    {
      "bufferView": 1,
      "byteOffset": 899616,
      "componentType": 5126,
      "count": 1600,
      "max": [
        0.9898433089256287,
        0.928916335105896
      ],
      "min": [
        0.9701055884361267,
        0.47369450330734253
      ],
      "type": "VEC2"
    },
    {
      "bufferView": 1,
      "byteOffset": 912416,
      "componentType": 5126,
      "count": 1600,
      "max": [
        0.9898433089256287,
        0.928916335105896
      ],
      "min": [
        0.9701055884361267,
        0.47369450330734253
      ],
      "type": "VEC2"
    },
    {
      "bufferView": 0,
      "byteOffset": 1101180,
      "componentType": 5125,
      "count": 1920,
      "type": "SCALAR"
    },
    {
      "bufferView": 2,
      "byteOffset": 1387824,
      "componentType": 5126,
      "count": 3882,
      "max": [
        1.8724290132522583,
        2.0451900959014893,
        2.2321481704711914
      ],
      "min": [
        -1.8724290132522583,
        -1.5256599187850952,
        -1.3083884716033936
      ],
      "type": "VEC3"
    },
    {
      "bufferView": 2,
      "byteOffset": 1434408,
      "componentType": 5126,
      "count": 3882,
      "max": [
        0.998806893825531,
        0.9972512125968933,
        0.9999970197677612
      ],
      "min": [
        -0.9989101886749268,
        -0.9978018999099731,
        -0.9999918341636658
      ],
      "type": "VEC3"
    },
    {
      "bufferView": 1,
      "byteOffset": 925216,
      "componentType": 5126,
      "count": 3882,
      "max": [
        0.9941563606262207,
        0.9915565252304077
      ],
      "min": [
        0.0397183857858181,
        0.04455503076314926
      ],
      "type": "VEC2"
    },
    {
      "bufferView": 1,
      "byteOffset": 956272,
      "componentType": 5126,
      "count": 3882,
      "max": [
        0.9941563606262207,
        0.9915565252304077
      ],
      "min": [
        0.0397183857858181,
        0.04455503076314926
      ],
      "type": "VEC2"
    },
    {
      "bufferView": 0,
      "byteOffset": 1108860,
      "componentType": 5125,
      "count": 19557,
      "type": "SCALAR"
    }
  ],
  "asset": {
    "extras": {
      "author": "Ergoni (https://sketchfab.com/Ergoni)",
      "license": "CC-BY-4.0 (http://creativecommons.org/licenses/by/4.0/)",
      "source": "https://sketchfab.com/3d-models/mushroom-potion-731600a7ec984f06a7f8ea248850859a",
      "title": "Mushroom Potion"
    },
    "generator": "Sketchfab-13.96.0",
    "version": "2.0"
  },
  "bufferViews": [
    {
      "buffer": 0,
      "byteLength": 1187088,
      "name": "floatBufferViews",
      "target": 34963
    },
    {
      "buffer": 0,
      "byteLength": 987328,
      "byteOffset": 1187088,
      "byteStride": 8,
      "name": "floatBufferViews",
      "target": 34962
    },
    {
      "buffer": 0,
      "byteLength": 1480992,
      "byteOffset": 2174416,
      "byteStride": 12,
      "name": "floatBufferViews",
      "target": 34962
    }
  ],
  "buffers": [
    {
      "byteLength": 3655408,
      "uri": "scene.bin"
    }
  ],
  "extensionsUsed": [
    "KHR_materials_unlit"
  ],
  "images": [
    {
      "uri": "textures/Mushroom_baseColor.png"
    }
  ],
  "materials": [
    {
      "emissiveFactor": [
        0.045630707641014095,
        0.045630707641014095,
        0.045630707641014095
      ],
      "emissiveTexture": {
        "index": 0
      },
      "extensions": {
        "KHR_materials_unlit": {}
      },
      "name": "Mushroom",
      "pbrMetallicRoughness": {
        "baseColorTexture": {
          "index": 0
        },
        "metallicFactor": 0.0
      }
    }
  ],
  "meshes": [
    {
      "name": "Base_2_Mushroom_0",
      "primitives": [
        {
          "attributes": {
            "NORMAL": 1,
            "POSITION": 0,
            "TEXCOORD_0": 2,
            "TEXCOORD_1": 3
          },
          "indices": 4,
          "material": 0,
          "mode": 4
        }
      ]
    },
    {
      "name": "Bottle_Mushroom_0",
      "primitives": [
        {
          "attributes": {
            "NORMAL": 6,
            "POSITION": 5,
            "TEXCOORD_0": 7,
            "TEXCOORD_1": 8
          },
          "indices": 9,
          "material": 0,
          "mode": 4
        }
      ]
    },
    {
      "name": "Star_Mushroom_0",
      "primitives": [
        {
          "attributes": {
            "NORMAL": 11,
            "POSITION": 10,
            "TEXCOORD_0": 12,
            "TEXCOORD_1": 13
          },
          "indices": 14,
          "material": 0,
          "mode": 4
        }
      ]
    },
    {
      "name": "Mushroom_2_Mushroom_0",
      "primitives": [
        {
          "attributes": {
            "NORMAL": 16,
            "POSITION": 15,
            "TEXCOORD_0": 17,
            "TEXCOORD_1": 18
          },
          "indices": 19,
          "material": 0,
          "mode": 4
        }
      ]
    }
  ],
  "nodes": [
    {
      "children": [
        1
      ],
      "matrix": [
        1.0,
        0.0,
        0.0,
        0.0,
        0.0,
        2.220446049250313e-16,
        -1.0,
        0.0,
        0.0,
        1.0,
        2.220446049250313e-16,
        0.0,
        0.0,
        0.0,
        0.0,
        1.0
      ],
      "name": "Sketchfab_model"
    },
    {
      "children": [
        2
      ],
      "matrix": [
        0.009999999776482582,
        0.0,
        0.0,
        0.0,
        0.0,
        0.0,
        0.009999999776482582,
        0.0,
        0.0,
        -0.009999999776482582,
        0.0,
        0.0,
        0.0,
        0.0,
        0.0,
        1.0
      ],
      "name": "93168505dcb3403cbe1b2ddea96704a7.fbx"
    },
    {
      "children": [
        3,
        5,
        7,
        9
      ],
      "name": "RootNode"
    },
    {
      "children": [
        4
      ],
      "matrix": [
        -99.99999999999885,
        1.2246469849340659e-14,
        1.5099579909783702e-05,
        0.0,
        1.5099579909783661e-05,
        7.549789993177569e-06,
        99.99999999999856,
        0.0,
        -1.127740100078761e-12,
        99.9999999999997,
        -7.549789970973109e-06,
        0.0,
        0.0,
        29.93101692199707,
        0.0,
        1.0
      ],
      "name": "Base_2"
    },
    {
      "mesh": 0,
      "name": "Base_2_Mushroom_0"
    },
    {
      "children": [
        6
      ],
      "matrix": [
        -302.66910672047874,
        -69.82074790342294,
        -71.67671698031332,
        0.0,
        -27.781964338943137,
        -160.73380335214614,
        273.886661106543,
        0.0,
        -96.12831512813877,
        266.2908239189817,
        146.5252208387421,
        0.0,
        76.28329467773438,
        78.17013549804688,
        -109.31706237792969,
        1.0
      ],
      "name": "Bottle"
    },
    {
      "mesh": 1,
      "name": "Bottle_Mushroom_0"
    },
    {
      "children": [
        8
      ],
      "matrix": [
        -99.99999999999885,
        1.2246469849340659e-14,
        1.5099579909783702e-05,
        0.0,
        1.5099579909783661e-05,
        7.549789993177569e-06,
        99.99999999999856,
        0.0,
        -1.127740100078761e-12,
        99.9999999999997,
        -7.549789970973109e-06,
        0.0,
        242.44659423828125,
        578.1845703125,
        112.27906799316406,
        1.0
      ],
      "name": "Star"
    },
    {
      "mesh": 2,
      "name": "Star_Mushroom_0"
    },
    {
      "children": [
        10
      ],
      "matrix": [
        -94.03270166199465,
        -8.388373105665519e-15,
        -36.146916300798914,
        0.0,
        -36.14691630079881,
        7.605733700720373e-06,
        94.03270166199438,
        0.0,
        2.7290160473996504e-06,
        100.74098968505831,
        -7.099270943691046e-06,
        0.0,
        30.78354263305664,
        220.33953857421875,
        -52.657432556152344,
        1.0
      ],
      "name": "Mushroom_2"
    },
    {
      "mesh": 3,
      "name": "Mushroom_2_Mushroom_0"
    }
  ],
  "samplers": [
    {
      "magFilter": 9729,
      "minFilter": 9987,
      "wrapS": 10497,
      "wrapT": 10497
    }
  ],
  "scene": 0,
  "scenes": [
    {
      "name": "Sketchfab_Scene",
      "nodes": [
        0
      ]
    }
  ],
  "textures": [
    {
      "sampler": 0,
      "source": 0
    }
  ]
}
