{
  "accessors": [
    {
      "bufferView": 1,
      "componentType": 5126,
      "count": 22402,
      "max": [
        0.5638700127601624,
        0.5638700127601624,
        0.723770022392273
      ],
      "min": [
        -0.5638700127601624,
        -0.5638700127601624,
        -0.6798400282859802
      ],
      "type": "VEC3"
    },
    {
      "bufferView": 1,
      "byteOffset": 268824,
      "componentType": 5126,
      "count": 22402,
      "max": [
        0.9999918341636658,
        0.9999932646751404,
        1.0
      ],
      "min": [
        -0.9999918341636658,
        -0.9999917149543762,
        -0.9999998211860657
      ],
      "type": "VEC3"
    },
    {
      "bufferView": 0,
      "componentType": 5125,
      "count": 134400,
      "type": "SCALAR"
    }
  ],
  "asset": {
    "extras": {
      "author": "JuanG3D (https://sketchfab.com/juang3d)",
      "license": "CC-BY-4.0 (http://creativecommons.org/licenses/by/4.0/)",
      "source": "https://sketchfab.com/3d-models/day31-spinning-top-d090504b2d994d7c812c14bc963afe90",
      "title": "Day#31: Spinning top"
    },
    "generator": "Sketchfab-12.65.0",
    "version": "2.0"
  },
  "bufferViews": [
    {
      "buffer": 0,
      "byteLength": 537600,
      "name": "floatBufferViews",
      "target": 34963
    },
    {
      "buffer": 0,
      "byteLength": 537648,
      "byteOffset": 537600,
      "byteStride": 12,
      "name": "floatBufferViews",
      "target": 34962
    }
  ],
  "buffers": [
    {
      "byteLength": 1075248,
      "uri": "scene.bin"
    }
  ],
  "materials": [
    {
      "doubleSided": true,
      "name": "Scene_-_Root",
      "pbrMetallicRoughness": {
        "roughnessFactor": 0.15901471983711674
      }
    }
  ],
  "meshes": [
    {
      "name": "Foreverspin_0",
      "primitives": [
        {
          "attributes": {
            "NORMAL": 1,
            "POSITION": 0
          },
          "indices": 2,
          "material": 0,
          "mode": 4
        }
      ]
    }
  ],
  "nodes": [
    {
      "children": [
        1
      ],
      "matrix": [
        1.0,
        0.0,
        0.0,
        0.0,
        0.0,
        2.220446049250313e-16,
        -1.0,
        0.0,
        0.0,
        1.0,
        2.220446049250313e-16,
        0.0,
        0.0,
        0.0,
        0.0,
        1.0
      ],
      "name": "Sketchfab_model"
    },
    {
      "children": [
        2
      ],
      "name": "Root"
    },
    {
      "children": [
        3
      ],
      "matrix": [
        25.4,
        0.0,
        0.0,
        0.0,
        0.0,
        25.4,
        0.0,
        0.0,
        0.0,
        0.0,
        25.4,
        0.0,
        0.0,
        0.0,
        0.0,
        1.0
      ],
      "name": "Foreverspin"
    },
    {
      "mesh": 0,
      "name": "Foreverspin_0"
    }
  ],
  "scene": 0,
  "scenes": [
    {
      "name": "Sketchfab_Scene",
      "nodes": [
        0
      ]
    }
  ]
}
